<svg width="2001" height="361" viewBox="0 0 2001 361" fill="none" xmlns="http://www.w3.org/2000/svg">
<g filter="url(#filter0_d_7_100)">
<path fill-rule="evenodd" clip-rule="evenodd" d="M67.1749 87.3763L50.6156 145.763L29.1858 145.763L29.1858 198.753L69.1231 318.961L112.957 318.961L125.62 324.849L1388.03 324.849L1524.4 264.99L1971.5 243.892L1971.5 151.651L1870.2 141.838L1863.38 136.441L1654.93 128.591L1627.65 110.437L1562.39 110.437L1562.39 125.156L1524.4 125.156L1344.19 54.5031L1180.55 54.5031C1170.16 58.7554 1137.49 67.4562 1089.96 68.2412C1042.42 69.0262 940.275 68.5683 895.143 68.2412L895.143 60.8815L841.568 60.8815L841.568 68.2412L676.949 68.2412L676.949 60.8815L676.949 42.237L665.26 35.8586L651.623 42.237L651.623 60.8815L517.2 60.8815L462.651 68.2412L449.885 68.2412L435.048 125.559L310.416 125.559L301.514 68.2412L234.717 68.2412L209.391 81.4887L209.391 87.3763L67.1749 87.3763Z" fill="#BCBABA"/>
<path d="M301.514 68.2412L310.416 125.559L435.048 125.559L449.885 68.2412L301.514 68.2412Z" fill="#8D8B8B"/>
<path d="M579.711 68.0134L541.876 68.0134L538.909 108.744L579.711 108.744L579.711 68.0134Z" fill="#8D8B8B"/>
<path d="M1230.32 168.532L1189.52 168.532L1189.52 209.263L1230.32 209.263L1230.32 168.532Z" fill="#8D8B8B"/>
<path d="M1230.32 241.025L1189.52 241.025L1189.52 282.503L1230.32 282.503L1230.32 241.025Z" fill="#8D8B8B"/>
<path d="M991.443 264.941L991.443 325.102L1132.4 325.102L1117.56 264.941L991.443 264.941Z" fill="#8D8B8B"/>
<path d="M560.655 266.985L560.655 325.102L705.195 325.102L687.322 264.941L560.655 266.985Z" fill="#8D8B8B"/>
<path d="M37.1477 212.839L1355.58 59.0335L1436.36 90.4191L50.4745 269.12L37.1477 212.839Z" fill="#8D8B8B"/>
<path d="M1317.64 188.447L1950.49 171.823L1950.49 216.58L1343.37 256.221L1317.64 188.447Z" fill="#8D8B8B"/>
</g>
<defs>
<filter id="filter0_d_7_100" x="-74.8142" y="-68.1414" width="2198.32" height="545.244" filterUnits="userSpaceOnUse" color-interpolation-filters="sRGB">
<feFlood flood-opacity="0" result="BackgroundImageFix"/>
<feColorMatrix in="SourceAlpha" type="matrix" values="0 0 0 0 0 0 0 0 0 0 0 0 0 0 0 0 0 0 127 0" result="hardAlpha"/>
<feOffset dx="24" dy="24"/>
<feGaussianBlur stdDeviation="64"/>
<feComposite in2="hardAlpha" operator="out"/>
<feColorMatrix type="matrix" values="0 0 0 0 0 0 0 0 0 0.0738558 0 0 0 0 0.0900681 0 0 0 1 0"/>
<feBlend mode="normal" in2="BackgroundImageFix" result="effect1_dropShadow_7_100"/>
<feBlend mode="normal" in="SourceGraphic" in2="effect1_dropShadow_7_100" result="shape"/>
</filter>
</defs>
</svg>
