<svg width="801" height="361" viewBox="0 0 801 361" fill="none" xmlns="http://www.w3.org/2000/svg">
<path d="M7.1397 252.275L0.343506 184.828L111.799 188.245V177.02H151.387L167.942 165.795V150.998H173.94V165.795H189.056L195.054 185.694H208.25V154.06H231.043V138.243H242.799V121.915H255.036V96.4037H265.112L268.711 129.058H285.986V99.9754H291.744L301.821 111.2V134.161H311.898L318.856 99.9754H333.732L349.087 111.2V161.713L373.559 164.775L374.999 63.749L398.992 48.9524L403.55 66.3002V134.161L417.226 148.447V39.7682L422.744 0.480469H429.222L440.739 46.4011H453.935V57.1159L445.537 60.1773L444.098 96.4036L452.495 118.854L457.774 103.547V84.1581H465.451V103.547L481.047 126.507L509.598 134.161V164.264H511.757L522.314 136.202H545.827L561.662 153.55L563.821 184.455H567.66C579.369 140.197 601.44 166.014 611.012 184.455L800.344 157.908L771.216 236.444V270.734L778.498 312.767L771.216 343.49H519.987C437.18 374.262 341.523 356.311 304.045 343.49L187.616 339.52L150.051 323.642L123.452 320.665L122.285 296.848L81.4532 291.886V320.665H64.5297V289.21H46.4065L7.1397 252.275Z" fill="#A5A4A4"/>
</svg>
