<svg width="801" height="361" viewBox="0 0 801 361" fill="none" xmlns="http://www.w3.org/2000/svg">
<g filter="url(#filter0_d_7_85)">
<path d="M301.76 155.82H327.932V136.303H352.857V226.86H326.935V204.532H301.76V155.82Z" fill="#8D8B8B"/>
<path d="M437.429 136.303H479.808L498.324 172.242V191.297L481.866 226.86H437.429L418.091 209.685V191.297H408.628L398.341 218.905H393.404V195.694H377.358V164.913H393.404V145.671H401.633L408.628 168.577H418.091L420.971 155.82L437.429 136.303Z" fill="#8D8B8B"/>
<path d="M516.06 145.671L512.115 155.82H502.912V202.659L512.115 209.685L516.06 220.614L532.947 218.905L543.87 202.659V160.869L532.947 145.671H516.06Z" fill="#8D8B8B"/>
<path d="M549.897 160.869V202.659C559.565 214.129 580.596 230.187 587.376 202.659C594.156 175.132 589.071 159.963 585.681 155.82C580.784 147.215 566.772 136.179 549.897 160.869Z" fill="#8D8B8B"/>
<path d="M179.825 159.154V205.601C185.46 213.938 200.8 225.609 217.076 205.601V159.154C210.963 149.796 194.955 136.696 179.825 159.154Z" fill="#8D8B8B"/>
<path fill-rule="evenodd" clip-rule="evenodd" d="M320.242 74.9787C322.206 98.1287 319.066 138.744 290.79 116.006H278.956L270.191 136.303H250.031L226.802 179.24L250.031 226.86H270.191L278.956 246.376H293.858C302.652 242.473 320.242 239.663 320.242 259.647V289.481C378.302 296.088 434.639 293.426 487.182 284.851L516.06 220.614L512.115 209.685L502.912 202.659V155.82H512.115L516.06 145.671L487.182 71.7475C429.368 65.1018 373.013 67.2247 320.242 74.9787ZM479.808 136.303H437.429L420.971 155.82L418.091 168.577H408.628L401.633 145.671H393.404V164.913H377.358V195.694H393.404V218.905H398.341L408.628 191.297H418.091V209.685L437.429 226.86H481.866L498.324 191.297V172.242L479.808 136.303ZM327.932 155.82H301.76V204.532H326.935V226.86H352.857V136.303H327.932V155.82Z" fill="#A5A4A4"/>
<path fill-rule="evenodd" clip-rule="evenodd" d="M758.151 177.196C669.583 113.306 576.636 82.0303 487.182 71.7475L516.06 145.671H532.947L543.87 160.869V202.659L532.947 218.905L516.06 220.614L487.182 284.851C603.685 265.839 701.535 217.758 758.151 177.196ZM549.897 202.659V160.869C566.772 136.179 580.784 147.215 585.681 155.82C589.071 159.963 594.156 175.132 587.376 202.659C580.596 230.187 559.565 214.129 549.897 202.659Z" fill="#BCBABA"/>
<path fill-rule="evenodd" clip-rule="evenodd" d="M320.242 74.9787C201.412 92.4393 100.755 138.453 42.5354 177.196C134.02 246.005 229.247 279.126 320.242 289.481V259.647C320.242 239.663 302.652 242.473 293.858 246.376H278.956L270.191 226.86H250.031L226.802 179.24L250.031 136.303H270.191L278.956 116.006H290.79C319.066 138.744 322.206 98.1287 320.242 74.9787ZM179.825 205.601V159.154C194.955 136.696 210.963 149.796 217.076 159.154V205.601C200.8 225.609 185.46 213.938 179.825 205.601Z" fill="#BCBABA"/>
</g>
<defs>
<filter id="filter0_d_7_85" x="-61.4646" y="-36.221" width="971.616" height="481.403" filterUnits="userSpaceOnUse" color-interpolation-filters="sRGB">
<feFlood flood-opacity="0" result="BackgroundImageFix"/>
<feColorMatrix in="SourceAlpha" type="matrix" values="0 0 0 0 0 0 0 0 0 0 0 0 0 0 0 0 0 0 127 0" result="hardAlpha"/>
<feOffset dx="24" dy="24"/>
<feGaussianBlur stdDeviation="64"/>
<feComposite in2="hardAlpha" operator="out"/>
<feColorMatrix type="matrix" values="0 0 0 0 0 0 0 0 0 0.0738558 0 0 0 0 0.0900681 0 0 0 1 0"/>
<feBlend mode="normal" in2="BackgroundImageFix" result="effect1_dropShadow_7_85"/>
<feBlend mode="normal" in="SourceGraphic" in2="effect1_dropShadow_7_85" result="shape"/>
</filter>
</defs>
</svg>
