<svg width="187" height="184" viewBox="0 0 187 184" fill="none" xmlns="http://www.w3.org/2000/svg">
<path d="M57.5639 0.792978C55.8991 0.809384 54.2819 1.30782 52.9014 2.27032C47.1944 6.25001 44.4116 18.4832 57.21 29.6024C56.8686 38.5301 73.5327 40.1453 66.9151 27.002C72.921 9.53399 64.7803 0.724618 57.5635 0.793368L57.5639 0.792978ZM157.271 4.52891C154.852 4.53204 152.194 5.65548 150.716 7.89806C141.673 21.6176 151.449 28.6074 160.824 13.7324C164.676 7.61915 161.304 4.52345 157.271 4.52852L157.271 4.52891ZM140.975 29.3211C116.202 51.541 97.6042 83.3973 44.2221 60.9375C51.4792 81.8328 41.5784 88.707 31.9905 90.7344C28.535 88.35 25.1534 85.1902 22.0788 81.25L14.5468 71.5938L15.5721 83.8008C17.5776 107.85 26.344 125.619 40.8776 137.073C55.4116 148.527 75.3096 153.565 99.1784 153.565C136.439 153.565 170.182 129.774 182.601 95.7523L184.689 90.027L178.67 90.8809C176.584 91.1766 174.944 91.0934 173.666 90.7715L186.044 67.2727C180.448 69.6692 174.577 72.5824 168.868 75.1828C169.544 69.9781 171.114 63.4094 173.837 55.5414L177.865 43.8715L168.136 51.4649C158.189 59.2266 147.495 68.5012 136.972 76.1719C133.476 69.1945 133.993 55.0488 140.975 29.3211ZM6.6491 47.1313C3.18113 47.1285 -0.386842 51.6102 0.52097 55.9938C2.92566 67.6063 14.503 64.2711 11.7882 52.9664C10.7753 48.7496 8.72995 47.1328 6.6491 47.1313ZM163.424 64.6727C160.997 74.0992 160.426 81.4828 161.886 87.268C162.891 91.2496 165.112 94.5746 168.356 96.4477C169.953 97.3695 171.707 97.9332 173.58 98.1938C161.901 106.281 144.861 100.776 152.67 79.9438C119.394 124.727 84.8159 129.294 73.703 95.227C67.9948 129.067 32.5593 121.579 24.5819 94.3121C33.1796 101.461 43.0577 104.79 52.1819 103.004C58.2964 101.806 63.8917 98.1621 67.9046 92.2856C70.2444 88.8598 72.0538 84.6824 73.3003 79.7856C78.3815 88.2746 84.2385 93.7707 90.805 96.6191C99.7581 100.503 109.448 99.2023 118.808 95.3613C134.123 89.0777 149.416 76.1645 163.424 64.6731L163.424 64.6727ZM161.08 134.863C165.532 137.847 168.148 141.196 168.148 144.678C168.148 157.479 134.723 167.945 93.7831 167.945C52.844 167.945 19.6374 157.48 19.6374 144.678C19.6374 141.301 22.0475 137.998 26.2538 135.096C10.7069 140.29 0.924095 147.291 0.924095 154.943C0.924095 170.967 42.544 183.911 93.7835 183.911C145.023 183.911 186.63 170.967 186.63 154.944C186.63 147.212 176.907 140.085 161.081 134.863H161.08Z" fill="url(#paint0_linear_7_99)"/>
<defs>
<linearGradient id="paint0_linear_7_99" x1="93.504" y1="0.792969" x2="93.504" y2="183.911" gradientUnits="userSpaceOnUse">
<stop stop-color="#F4FDFF"/>
<stop offset="1" stop-color="#2F5F6A"/>
</linearGradient>
</defs>
</svg>
