<svg width="1201" height="361" viewBox="0 0 1201 361" fill="none" xmlns="http://www.w3.org/2000/svg">
<g filter="url(#filter0_d_7_50)">
<path fill-rule="evenodd" clip-rule="evenodd" d="M94.7876 152.007V211.063L133.849 227.936V201.572L176.752 211.063V275.391H201.726L209.41 227.936H213.252L209.41 259.573H229.901L237.586 236.372L373.34 275.391H954.137V318.629H982.952V275.391C1023.93 273.282 1105.9 251.558 1105.9 181.535C1105.9 111.512 1023.93 94.709 982.952 95.0605V42.3323H954.137V95.0605H373.34L237.586 134.08L229.901 105.606H209.41L213.252 140.407H209.41L201.726 89.7878H176.752V152.007L133.849 165.717V140.407L94.7876 152.007ZM921.066 170.359V151.085H982.952V213.442H921.066V194.168H933.802V170.359H921.066ZM904.887 106.867V124.441H921.066V106.867H904.887ZM904.887 258.793V239.519H921.066V258.793H904.887Z" fill="#BCBABA"/>
<path d="M921.066 151.085V170.359H933.802V194.168H921.066V213.442H982.952V151.085H921.066Z" fill="#A5A4A4"/>
<path d="M904.887 106.867V124.441H921.066V106.867H904.887Z" fill="#A5A4A4"/>
<path d="M904.887 239.519V258.793H921.066V239.519H904.887Z" fill="#A5A4A4"/>
</g>
<defs>
<filter id="filter0_d_7_50" x="-9.2124" y="-61.6677" width="1267.11" height="532.296" filterUnits="userSpaceOnUse" color-interpolation-filters="sRGB">
<feFlood flood-opacity="0" result="BackgroundImageFix"/>
<feColorMatrix in="SourceAlpha" type="matrix" values="0 0 0 0 0 0 0 0 0 0 0 0 0 0 0 0 0 0 127 0" result="hardAlpha"/>
<feOffset dx="24" dy="24"/>
<feGaussianBlur stdDeviation="64"/>
<feComposite in2="hardAlpha" operator="out"/>
<feColorMatrix type="matrix" values="0 0 0 0 0 0 0 0 0 0.0738558 0 0 0 0 0.0900681 0 0 0 1 0"/>
<feBlend mode="normal" in2="BackgroundImageFix" result="effect1_dropShadow_7_50"/>
<feBlend mode="normal" in="SourceGraphic" in2="effect1_dropShadow_7_50" result="shape"/>
</filter>
</defs>
</svg>
