<svg width="1572" height="361" viewBox="0 0 1572 361" fill="none" xmlns="http://www.w3.org/2000/svg">
<path d="M0.902344 282.87V207.888L312.981 206.453V189.239H323.186V185.556H395.798L397.222 206.065L424.748 205.938V193.843H432.105C433.054 191.081 435.854 185.556 439.461 185.556H455.834V193.843H481.462C481.858 191.081 484.5 185.556 491.903 185.556H508.039L509.226 193.843H531.769V171.512H542.922C543.792 169.057 547.051 164.284 553.126 164.836V152.1H537.801V142.955H580.919V93.3321H597.504L617.055 77.2428C622.467 78.9364 633.151 84.5253 632.592 93.3321H639.575V36.0881H650.223V142.955H664.014V134.656H678.853V128.559C676.467 128.841 671.695 128.525 671.695 125.003C671.695 121.48 674.78 120.543 676.322 120.515H681.471V108.744H688.28V120.515H695.611C697.154 120.825 700.238 122.157 700.238 125.003C700.238 127.848 697.154 129.18 695.611 129.491H691.247V134.656H704.864V142.955H736.111V89.7755H751.823L772.596 74.0249C777.368 74.9282 787.225 79.3429 788.482 89.7755H795.085V0.480469H808.648V103.29L818.62 70.5253C815.03 61.4526 812.796 43.3071 832.581 43.3071C852.366 43.3071 851.373 61.4526 848.403 70.5253V82.6509H855.185V90.7777H849.068V112.578H855.185V119.673H848.403L849.068 134.249H883.373V143.666H901.589L905.046 93.6156H908.237V106.257H921.134V113.481H916.613L918.741 136.571C922.375 134.679 931.133 132.031 937.09 136.571L939.084 142.763H953.045V135.668C950.962 134.808 948.046 132.443 953.045 129.863V123.543H957.832L960.092 131.153H969.134V134.636H962.485V142.763H983.361L984.424 164.176H965.677V187.138H987.35V171.529H998.784C998.651 167.444 1000.86 159.275 1010.75 159.275C1020.64 159.275 1023.29 167.444 1023.38 171.529H1061.41L1082.29 177.334V183.913L1070.19 187.525H1100.9L1106.48 196.296V202.802L1125.71 202.713V189.215H1200.62L1220.11 195.134V202.279L1571.78 200.661V206.082C1537.33 214.212 1473.08 305.454 1487.05 305.454C1501.02 305.454 1514.98 312.682 1514.98 332.556C1514.98 348.456 1496.36 358.453 1487.05 361.465H442.277L242.075 352.431V348.512H182.994L186.282 359.782L175.543 371.902C176.931 365.417 179.181 351.659 177.077 348.512H174.447V340.645H178.392L175.543 316.404L184.31 324.272L181.679 340.645H242.075V321.715L134.06 305.454L123.817 371.402H78.1894L69.8089 297.324L0.902344 282.87Z" fill="#A5A4A4"/>
</svg>
