<svg width="1601" height="361" viewBox="0 0 1601 361" fill="none" xmlns="http://www.w3.org/2000/svg">
<g filter="url(#filter0_d_7_73)">
<path fill-rule="evenodd" clip-rule="evenodd" d="M41.3696 239.968V116.104L382.514 52.5415H1034.7L1516.32 140.55L1559.32 178.036L1516.32 217.151L1034.7 308.419H382.514L41.3696 239.968ZM340.963 146.85L368.873 136.032H422.155V218.974H368.873L340.963 208.155V146.85ZM446.894 224.023V136.032L604.839 80.4961H974.012L1024.76 133.868H1105.32V226.908H1024.76L974.012 278.116H604.839L446.894 224.023ZM1130.05 141.08V217.531H1187.14L1211.88 208.877V149.735L1187.14 141.08H1130.05Z" fill="#BCBABA"/>
<path d="M899.162 124.492L978.452 133.868L991.138 152.62V203.107L978.452 226.908L899.162 231.235V213.204H574.392V143.965H899.162V124.492Z" fill="#8D8B8B"/>
<path d="M1130.05 141.08V217.531H1187.14L1211.88 208.877V149.735L1187.14 141.08H1130.05Z" fill="#A5A4A4"/>
<path d="M340.963 146.85L368.873 136.032H422.155V218.974H368.873L340.963 208.155V146.85Z" fill="#A5A4A4"/>
<path fill-rule="evenodd" clip-rule="evenodd" d="M446.894 136.032V224.023L604.839 278.116H974.012L1024.76 226.908H1105.32V133.868H1024.76L974.012 80.4961H604.839L446.894 136.032ZM978.452 133.868L899.162 124.492V143.965H574.392V213.204H899.162V231.235L978.452 226.908L991.138 203.107V152.62L978.452 133.868Z" fill="#A5A4A4"/>
</g>
<defs>
<filter id="filter0_d_7_73" x="-62.6304" y="-51.4585" width="1773.95" height="511.878" filterUnits="userSpaceOnUse" color-interpolation-filters="sRGB">
<feFlood flood-opacity="0" result="BackgroundImageFix"/>
<feColorMatrix in="SourceAlpha" type="matrix" values="0 0 0 0 0 0 0 0 0 0 0 0 0 0 0 0 0 0 127 0" result="hardAlpha"/>
<feOffset dx="24" dy="24"/>
<feGaussianBlur stdDeviation="64"/>
<feComposite in2="hardAlpha" operator="out"/>
<feColorMatrix type="matrix" values="0 0 0 0 0 0 0 0 0 0.0738558 0 0 0 0 0.0900681 0 0 0 1 0"/>
<feBlend mode="normal" in2="BackgroundImageFix" result="effect1_dropShadow_7_73"/>
<feBlend mode="normal" in="SourceGraphic" in2="effect1_dropShadow_7_73" result="shape"/>
</filter>
</defs>
</svg>
