<svg width="2001" height="361" viewBox="0 0 2001 361" fill="none" xmlns="http://www.w3.org/2000/svg">
<path d="M0.34375 259.134V195.404L396.908 198.006V138.936H387.083V126.616H396.908V96.3045H401.607V79.8775C408.1 69.2391 414.422 75.4448 416.771 79.8775V98.2601H422.538V31.3788H412.499V18.2765H419.334C416.344 12.3445 413.61 0.480469 426.596 0.480469C439.582 0.480469 437.56 12.3445 434.925 18.2765H440.906V31.3788H431.508V98.2601H440.692V78.5086C447.698 70.3733 455.917 75.1189 459.151 78.5086V91.3566H469.094L483.298 130.374L469.094 140.779L483.298 171.994H469.094V198.006H2000.34V214.913C1932.16 238.844 1918.9 289.047 1920.8 311.157H1954.89C2011.71 330.926 1978.56 351.476 1954.89 359.279H256.026L242.805 348.687L134.508 349.427V356.416C130.336 363.777 126.07 359.483 124.459 356.416V348.612H112.628V342.089H123.568C124.077 338.012 124.967 332.887 129.802 332.887C133.669 332.887 134.551 339.022 134.508 342.089H146.776V327.328L94.0937 318.961L85.571 350.175H61.4233V318.961L30.1733 312.458V294.25L0.34375 259.134Z" fill="#A5A4A4"/>
</svg>
