<svg width="1201" height="361" viewBox="0 0 1201 361" fill="none" xmlns="http://www.w3.org/2000/svg">
<g filter="url(#filter0_d_7_58)">
<path d="M144.6 100.341C96.2203 100.341 60.5639 153.241 48.7832 179.691C67.6911 239.306 120.539 259.293 144.6 261.834C157.162 264.434 347.184 294.553 440.624 309.287H719.539C772.426 308.767 960.975 259.667 1048.64 235.182H1112.33C1128.16 226.341 1132.12 202.029 1132.12 190.978L1151.9 181.878L1132.12 167.577C1130.58 137.935 1118.29 124.509 1112.33 121.501H1036.01C879.561 68.1783 720.024 52.7316 659.811 51.6736H452.47L144.6 100.341Z" fill="#BCBABA"/>
<path d="M387.512 102.85L332.714 172.977L387.512 238.165L490.736 273.723H741.788L888.341 172.977L741.788 88.0343H490.736L387.512 102.85Z" fill="#A5A4A4"/>
<path d="M777.636 129.008H758.135L756.479 234.085H777.636L796.952 206.081V153.542L777.636 129.008Z" fill="#8D8B8B"/>
<ellipse cx="596.731" cy="180.78" rx="15.8821" ry="21.3949" fill="#8D8B8B"/>
<ellipse cx="715.463" cy="181.298" rx="16.2663" ry="21.9125" fill="#8D8B8B"/>
<path d="M306.339 200.688V159.16C317.282 150.759 342.908 138.998 357.875 159.16C362.581 166.663 369.17 185.472 357.875 200.688C339.99 224.78 316.066 210.726 306.339 200.688Z" fill="#8D8B8B"/>
<path d="M469.954 117.174V75.6467C480.896 67.246 506.523 55.4851 521.489 75.6467C526.196 83.1491 532.785 101.958 521.489 117.174C503.605 141.267 479.68 127.213 469.954 117.174Z" fill="#8D8B8B"/>
<path d="M469.954 288.506V246.978C480.896 238.578 506.523 226.817 521.489 246.978C526.196 254.481 532.785 273.29 521.489 288.506C503.605 312.599 479.68 298.545 469.954 288.506Z" fill="#8D8B8B"/>
<path d="M765.479 77.8172L765.479 119.345C754.536 127.746 728.909 139.507 713.943 119.345C709.236 111.843 702.647 93.0335 713.943 77.8172C731.827 53.7247 755.752 67.7787 765.479 77.8172Z" fill="#8D8B8B"/>
<path d="M765.479 249.149L765.479 290.677C754.536 299.077 728.909 310.838 713.943 290.677C709.236 283.174 702.647 264.365 713.943 249.149C731.827 225.056 755.752 239.11 765.479 249.149Z" fill="#8D8B8B"/>
<path d="M911.837 160.802L911.837 202.33C900.894 210.73 875.267 222.491 860.301 202.33C855.594 194.827 849.005 176.018 860.301 160.802C878.185 136.709 902.11 150.763 911.837 160.802Z" fill="#8D8B8B"/>
</g>
<defs>
<filter id="filter0_d_7_58" x="-55.2168" y="-52.3264" width="1359.12" height="513.614" filterUnits="userSpaceOnUse" color-interpolation-filters="sRGB">
<feFlood flood-opacity="0" result="BackgroundImageFix"/>
<feColorMatrix in="SourceAlpha" type="matrix" values="0 0 0 0 0 0 0 0 0 0 0 0 0 0 0 0 0 0 127 0" result="hardAlpha"/>
<feOffset dx="24" dy="24"/>
<feGaussianBlur stdDeviation="64"/>
<feComposite in2="hardAlpha" operator="out"/>
<feColorMatrix type="matrix" values="0 0 0 0 0 0 0 0 0 0.0738558 0 0 0 0 0.0900681 0 0 0 1 0"/>
<feBlend mode="normal" in2="BackgroundImageFix" result="effect1_dropShadow_7_58"/>
<feBlend mode="normal" in="SourceGraphic" in2="effect1_dropShadow_7_58" result="shape"/>
</filter>
</defs>
</svg>
