<svg width="1201" height="361" viewBox="0 0 1201 361" fill="none" xmlns="http://www.w3.org/2000/svg">
<path d="M0.34375 304.088L10.1471 264.197L284.624 263.898V260.585H279.556V245.752L305.337 237.479H342.136V260.585H335.746V263.898H397.003V165.428H385.104V142.745L398.545 140.61V133.939L402.732 126.785V46.1424L365.934 47.4767L376.29 33.8669L365.934 18.9229H406.258L409.122 126.785L413.089 133.939V263.898H419.038L427.632 253.758V145.413H417.936V142.745L432.92 140.61V197.984L574.826 139.009V142.745L438.87 204.656L432.92 211.06V253.758L437.547 260.585H456.969L462.136 243.469H473.99C494.901 229.776 513.704 237.764 520.492 243.469H543.744V250.279L536.145 259.113H513.654V263.898H550.582V221.936H572.466C569.67 198.526 576.265 190.219 579.913 188.992H567.603V175.557H581.28V180.079H587.511L583.256 174.268V126.785L587.511 117.398V111.141L591.766 107.092H603.468L607.723 111.141V117.398L613.802 126.785V174.268L610.307 180.079H620.439H667.918V165.199L671.258 160.72H692.015L696.071 165.199V198.42H714.323V179.068V173.578L711.102 170.111V122.869L716.709 109.722V104.232H734.841V109.722L741.76 122.869V168.666L739.494 173.578V198.42H760.847V86.895H743.788V72.7368H762.04V-0.0770264H767.051V72.7368H784.229V86.895H776.117V139.772L789.478 141.216V164.621H776.117V179.068H785.064V170.111H793.176V181.091L814.271 183.86V198.42H829.085V213.241H814.271V234.562H882.76V231.182H875.889V209.341H912.603L938.581 221.821V234.562H1107.55V221.041H1122.79V226.762V236.223H1179.1C1185.9 267.596 1199.66 332.763 1200.31 342.447C1200.96 352.131 1191.61 358.504 1186.85 360.48H73.936V354.058H72.496V360.48H41.5033L33.1401 350.846V329.849H72.496V325.458L10.1471 319.759L0.34375 304.088Z" fill="#A5A4A4"/>
</svg>
