<svg width="200" height="201" viewBox="0 0 200 201" fill="none" xmlns="http://www.w3.org/2000/svg">
<path d="M104.562 0.553395C90.2748 20.8519 114.369 133.842 142.188 57.4049C162.168 129.291 190.435 132.371 190.468 99.1188C220.301 132.098 172.208 190.919 154.061 200.553H132.342C151.475 183.913 164.335 168.119 166.582 144.014C146.869 147.932 136.642 152.73 132.722 118.213C107.416 154.219 90.6623 97.6813 75.5623 73.6699C76.2486 90.436 76.9552 112.531 66.0423 127.681C62.4023 132.73 52.1956 134.379 43.2357 134.253C47.369 140.94 61.9223 163.102 50.3223 171.345C38.7223 179.588 36.5423 171.185 39.549 178.071C45.0757 186.754 49.129 194.445 64.1623 200.552H40.8023C16.0357 192.768 -5.78392 162.436 1.38275 144.193C10.5557 151.951 19.6219 157.041 26.9219 156.476C6.45525 126.503 11.1552 95.8055 20.7752 64.4361C29.2019 94.5348 34.7286 98.7396 43.5152 105.819C31.3886 77.2697 79.1152 16.6462 104.561 0.552979L104.562 0.553395Z" fill="#D79F0E"/>
<path d="M98.208 27.4947C110.571 45.0589 89.7227 142.828 65.6507 76.688C48.3621 138.891 23.9032 141.556 23.8743 112.783C-1.94026 141.319 39.6746 192.217 55.3767 200.553H74.1705C57.6146 186.155 46.4869 172.488 44.5429 151.63C61.6007 155.021 70.4494 159.172 73.8414 129.305C95.7391 160.461 110.236 111.539 123.302 90.762C122.708 105.27 122.096 124.388 131.539 137.497C134.689 141.866 143.521 143.294 151.274 143.185C147.697 148.97 135.104 168.147 145.142 175.28C155.179 182.412 157.065 175.141 154.464 181.1C149.681 188.613 146.174 195.267 133.166 200.552H153.379C174.81 193.817 193.69 167.571 187.489 151.785C179.551 158.498 171.706 162.902 165.39 162.413C183.099 136.478 179.033 109.916 170.708 82.772C163.417 108.816 158.635 112.455 151.032 118.58C161.525 93.8768 120.227 41.4198 98.2091 27.4944L98.208 27.4947Z" fill="#D7560E"/>
<path d="M104.72 88.1246C96.6889 99.5353 110.233 163.052 125.872 120.083C137.103 160.494 152.993 162.225 153.012 143.532C169.782 162.071 142.747 195.137 132.546 200.553H120.337C131.092 191.199 138.321 182.32 139.584 168.77C128.503 170.973 122.754 173.67 120.55 154.266C106.324 174.507 96.9067 142.724 88.4184 129.227C88.8041 138.651 89.2014 151.072 83.0668 159.588C81.0206 162.427 75.283 163.354 70.2461 163.283C72.5697 167.042 80.7507 179.5 74.2299 184.134C67.709 188.768 66.4835 184.044 68.1737 187.915C71.2805 192.796 73.559 197.119 82.0099 200.553H68.8783C54.9559 196.177 42.6901 179.126 46.7188 168.871C51.8753 173.232 56.9718 176.093 61.0755 175.775C49.5703 158.926 52.2124 141.67 57.6202 124.036C62.3572 140.956 65.464 143.319 70.4033 147.299C63.5864 131.25 90.4156 97.1711 104.72 88.1244L104.72 88.1246Z" fill="#BE0E0E"/>
</svg>
