<svg width="1201" height="361" viewBox="0 0 1201 361" fill="none" xmlns="http://www.w3.org/2000/svg">
<path d="M0.34375 289.475V229.119L50.3103 220.599V241.901L98.6822 229.119V157.404H127.386L144.396 220.599C158.004 209.806 292.524 181.546 358.083 168.765H845.523V90.6579H863.064V39.5338H874.227V90.6579H898.147V0.480469H901.868V90.6579H912.499V24.6225H921.004V90.6579H941.735C951.834 109.119 943.329 111.25 948.645 143.912C952.897 170.043 1028.02 177.048 1065.06 177.285C1112.54 179.652 1206.03 200.149 1200.07 263.202C1194.12 326.256 1085.61 346.279 1032.1 348.409C835.954 352.433 426.548 358.066 358.083 348.409C289.618 338.753 202.336 316.457 167.253 306.516L157.685 334.918H136.954L127.386 360.48H98.6822V289.475L50.3103 276.693V300.835L0.34375 289.475Z" fill="#A5A4A4"/>
</svg>
