<svg width="563" height="563" viewBox="0 0 563 563" fill="none" xmlns="http://www.w3.org/2000/svg">
<path fill-rule="evenodd" clip-rule="evenodd" d="M499.363 250.804H465.351C457.21 250.804 449.402 254.038 443.646 259.794C437.889 265.551 434.655 273.359 434.655 281.5C434.655 289.641 437.889 297.449 443.646 303.206C449.402 308.963 457.21 312.197 465.351 312.197H499.363C492.685 359.473 470.817 403.295 437.056 437.056C403.295 470.817 359.472 492.686 312.196 499.363V465.351C312.196 457.21 308.962 449.402 303.206 443.646C297.449 437.889 289.641 434.655 281.5 434.655C273.359 434.655 265.551 437.889 259.794 443.646C254.038 449.402 250.804 457.21 250.804 465.351V499.363C203.528 492.686 159.705 470.817 125.944 437.056C92.1829 403.295 70.3147 359.473 63.6372 312.197H97.6489C105.79 312.197 113.598 308.963 119.355 303.206C125.111 297.449 128.345 289.641 128.345 281.5C128.345 273.359 125.111 265.551 119.355 259.794C113.598 254.038 105.79 250.804 97.6489 250.804H63.6372C70.3147 203.528 92.1829 159.705 125.944 125.944C159.705 92.183 203.528 70.3148 250.804 63.6374V97.649C250.804 105.79 254.038 113.598 259.794 119.355C265.551 125.111 273.359 128.345 281.5 128.345C289.641 128.345 297.449 125.111 303.206 119.355C308.962 113.598 312.196 105.79 312.196 97.649V63.6374C359.472 70.3148 403.295 92.183 437.056 125.944C470.817 159.705 492.685 203.528 499.363 250.804ZM0.116089 281.5C0.116089 206.872 29.7618 135.301 82.5315 82.5317C135.301 29.7619 206.872 0.116211 281.5 0.116211C356.128 0.116211 427.699 29.7619 480.469 82.5317C533.238 135.301 562.884 206.872 562.884 281.5C562.884 356.128 533.238 427.699 480.469 480.469C427.699 533.238 356.128 562.884 281.5 562.884C206.872 562.884 135.301 533.238 82.5315 480.469C29.7618 427.699 0.116089 356.128 0.116089 281.5ZM185.154 281.5C185.154 298.445 198.906 312.197 215.851 312.197H250.804V347.15C250.804 355.291 254.038 363.099 259.794 368.855C265.551 374.612 273.359 377.846 281.5 377.846C289.641 377.846 297.449 374.612 303.206 368.855C308.962 363.099 312.196 355.291 312.196 347.15V312.197H347.149C355.291 312.197 363.098 308.963 368.855 303.206C374.612 297.449 377.846 289.641 377.846 281.5C377.846 273.359 374.612 265.551 368.855 259.794C363.098 254.038 355.291 250.804 347.149 250.804H312.196V215.851C312.196 207.71 308.962 199.902 303.206 194.145C297.449 188.388 289.641 185.154 281.5 185.154C273.359 185.154 265.551 188.388 259.794 194.145C254.038 199.902 250.804 207.71 250.804 215.851V250.804H215.851C207.709 250.804 199.902 254.038 194.145 259.794C188.388 265.551 185.154 273.359 185.154 281.5Z" fill="#BE0E0E"/>
</svg>
